<?xml version="1.0" encoding="utf-8"?>
<!-- Generator: Adobe Illustrator 16.0.0, SVG Export Plug-In . SVG Version: 6.00 Build 0)  -->
<svg version="1.2" baseProfile="tiny" id="Layer_1" xmlns="http://www.w3.org/2000/svg" xmlns:xlink="http://www.w3.org/1999/xlink"
	 x="0px" y="0px" width="640px" height="640px" viewBox="0 0 640 640" xml:space="preserve">
<path fill-rule="evenodd" fill="#130C06" d="M379.823,248.44c0,35.244,0,70.276,0,105.237c-0.327,0.188-0.51,0.381-0.7,0.392
	c-6.717,0.353-6.748,0.358-8.438-6.008c-4.235-15.975-8.862-31.814-16.471-46.584c-4.76-9.24-10.725-17.781-18.225-24.869
	c-14.558-13.756-31.722-22.556-51.767-25.736c-11.133-1.765-22.277-2.442-33.43-1.831c-21.426,1.174-41.228,7.27-58.594,20.496
	c-14.868,11.323-25.246,25.855-32.567,42.858c-7.02,16.304-11.548,33.259-14.038,50.804c-0.55,3.874-1.469,7.698-1.947,11.579
	c-0.26,2.106-0.855,4.381,2.891,4.762c7.211,0.733,14.326,2.437,21.539,3.119c6.978,0.659,14.044,0.948,21.046,0.69
	c22.64-0.836,44.143-5.681,63.033-19.064c11.771-8.34,20.769-19.106,27.763-31.623c8.793-15.734,13.109-33.08,17.99-50.22
	c0.245-0.857,0.57-1.692,0.84-2.545c2.146-6.801,2.146-6.802,9.873-6.315c0,37.14,0,74.3,0,111.776
	c-4.987,0.343-9.731,1.181-13.904-3.764c-5.937-7.037-14.443-8.362-22.861-6.367c-13.542,3.209-26.799,7.594-40.293,11.024
	c-8.849,2.248-17.835,4.303-26.886,5.323c-10.306,1.164-20.778,1.75-31.13,1.34c-9.681-0.381-19.297-2.397-28.943-3.688
	c-0.662-0.091-1.329-0.132-2.029-0.197c-0.357,3.668-0.945,7.228-1.009,10.797c-0.317,17.719-0.773,35.442-0.615,53.159
	c0.091,10.241,0.95,20.501,1.997,30.699c2.127,20.719,5.892,41.144,12.956,60.809c6.166,17.165,14.662,32.99,28.083,45.723
	c9.916,9.405,21.535,15.692,34.694,19.477c11.295,3.25,22.698,4.965,34.438,5.468c18.784,0.803,37.225-0.638,55.025-6.938
	c14.872-5.265,27.818-13.79,38.158-25.677c11.29-12.978,18.865-28.061,23.417-44.729c2.989-10.948,6.651-21.712,10.034-32.634
	c2.396,0,4.864,0,7.53,0c0,37.31,0,74.474,0,112.011c-3.01,0-5.944,0.146-8.853-0.082c-0.954-0.073-2.047-0.926-2.721-1.726
	c-7.293-8.648-16.807-10.03-27.029-7.725c-9.338,2.106-18.568,4.776-27.718,7.614c-11.427,3.543-22.914,6.851-34.835,8.019
	c-10.656,1.045-21.401,2.264-32.061,1.934c-14.869-0.461-29.704-2.434-43.86-7.413c-9.344-3.287-18.706-6.698-27.628-10.961
	c-12.468-5.956-23.789-13.857-33.996-23.224c-5.764-5.289-11.899-10.334-16.827-16.342c-8.721-10.633-17.26-21.518-24.745-33.031
	c-8.391-12.911-15.589-26.671-19.542-41.696c-2.804-10.655-5.495-21.479-6.65-32.396c-1.403-13.251-1.917-26.71-1.384-40.022
	c0.595-14.842,3.219-29.542,7.772-43.793c0.372-1.164,0.629-2.364,0.917-3.555c1.488-6.14,1.5-6.164-3.49-9.494
	c-12.096-8.075-22.805-17.818-32.465-28.567c-11.987-13.338-21.988-28.135-30.672-43.906c-8.548-15.524-14.393-31.932-17.853-49.168
	c-1.692-8.431-2.163-17.122-2.935-25.719c-0.485-5.399-0.811-10.848-0.679-16.262c0.58-24.022,4.576-47.379,13.311-69.909
	c5.973-15.407,13.331-30.039,22.928-43.439c5.287-7.382,11.419-14.165,17.255-21.146c9.536-11.409,21.25-20.31,33.436-28.618
	c18.66-12.723,39.153-21.331,61.196-25.987c7.972-1.683,16.219-2.134,24.365-2.895c5.174-0.482,10.394-0.724,15.588-0.677
	c11.382,0.103,22.631,1.513,33.431,5.205c11.178,3.819,22.222,8.032,33.303,12.129c7.966,2.945,16.169,3.499,24.325,1.566
	c2.845-0.673,5.733-2.817,7.724-5.067c3.084-3.483,6.469-4.999,10.987-4.334c0.99,0.146,2.019,0.021,3.273,0.021
	c0,35.089,0,69.976,0,105.094c-2.535,0-5.092,0-7.398,0c-3.378-10.787-6.714-21.514-10.097-32.227
	c-4.635-14.68-11.722-27.944-21.906-39.631c-14.022-16.092-31.656-25.979-52.277-30.169c-9.963-2.024-20.336-2.8-30.523-2.798
	c-19.516,0.004-38.288,3.916-55.39,13.929c-10.876,6.368-20.198,14.419-28.005,24.438c-13.104,16.816-20.329,36.164-24.987,56.573
	c-2.458,10.766-4.087,21.755-5.488,32.72c-1.168,9.147-1.814,18.399-2.06,27.621c-0.485,18.168-0.879,36.352-0.623,54.52
	c0.143,10.09,1.301,20.21,2.676,30.224c1.639,11.946,3.518,23.9,6.16,35.656c4.042,17.985,10.649,35.04,21.028,50.453
	c0.248,0.366,0.408,0.797,0.678,1.146c1.346,1.735,2.714,3.452,3.879,4.928c5.528-9.429,10.563-19.081,16.627-28.038
	c5.447-8.048,11.814-15.512,18.149-22.913c11.873-13.873,26.136-24.981,41.773-34.256c16.918-10.037,34.909-17.323,54.338-21.247
	c15.653-3.162,31.387-3.766,47.178-3.17c11.889,0.449,23.379,3.598,34.551,7.685c8.497,3.107,16.917,6.422,25.397,9.577
	c7.237,2.692,14.768,3.481,22.203,1.577c3.166-0.812,6.195-3.073,8.713-5.317C371.623,247.668,371.481,247.511,379.823,248.44z"/>
<path fill-rule="evenodd" fill="#130C06" d="M404.876,26.184c-19.094,0-37.867,0-56.881,0c0-3.155,0-6.161,0-9.657
	c1.25,0,2.569,0,3.887,0c33.253,0,66.503,0.135,99.754-0.061c14.155-0.083,28.302-0.955,42.457-1.275
	c8.68-0.197,17.415-0.611,26.042,0.092c20.697,1.685,40.827,5.909,59.968,14.454c15.016,6.703,28.425,15.602,39.269,27.902
	c10.881,12.342,18.09,26.549,20.348,43.198c1.862,13.731,1.006,27.042-3.498,40.117c-3.293,9.553-8.983,17.616-15.396,25.328
	c-9.752,11.726-22.003,20.15-35.38,26.922c-12.973,6.568-26.718,11.157-41.021,14.132c-12.452,2.591-24.974,3.991-37.66,4.897
	c-10.915,0.779-21.568-0.187-32.293-1.523c-4.987-0.622-9.983-1.161-15.102-1.751c0,55.432,0,110.965,0,166.924
	c18.829,0,37.537,0,56.406,0c0,3.34,0,6.258,0,9.446c-55.861,0-111.701,0-167.788,0c0-2.981,0-5.978,0-9.262
	c18.904,0,37.76,0,56.889,0C404.876,259.384,404.876,142.983,404.876,26.184z M459.235,199.068c8.95,1.118,17.68,2.873,26.456,3.146
	c13.051,0.407,26.195,1.078,39.065-2.544c15.37-4.325,28.525-12.002,38.054-24.995c10.975-14.97,14.749-32.417,15.753-50.479
	c0.509-9.133-0.254-18.342-0.579-27.513c-0.41-11.488-2.597-22.644-6.83-33.354c-5.924-14.988-16.35-25.739-31.341-31.514
	c-12.641-4.869-26.064-6.554-39.521-6.87c-12.239-0.286-24.497,0.361-36.746,0.568c-4.237,0.072-4.334,0.137-4.334,4.444
	c0.009,54.176,0.017,108.353,0.022,162.53C459.235,194.418,459.235,196.352,459.235,199.068z"/>
<path fill-rule="evenodd" fill="#130C06" d="M528.806,257.819c-19.064,0-37.606,0-56.425,0c0-3.154,0-6.155,0-9.421
	c55.759,0,111.584,0,167.657,0c0,2.97,0,5.969,0,9.267c-18.866,0-37.72,0-57.141,0c0,1.702,0,3.12,0,4.539
	c0,88.462,0,176.924-0.002,265.385c0,14.688-2.162,29.091-6.541,43.07c-4.514,14.415-12.132,27.123-23.853,36.825
	c-11.349,9.396-24.521,15.094-39.302,16.528c-7.065,0.685-14.2,1.604-21.249,1.267c-17.848-0.856-35.125-4.17-50.17-14.774
	c-11.803-8.319-20.206-19.062-22.83-33.521c-2.046-11.266-0.771-22.12,5.87-31.892c5.444-8.01,13.36-11.851,22.669-12.603
	c5.254-0.424,10.77-0.403,15.883,0.72c12.878,2.83,20.64,15.555,17.686,28.398c-1.563,6.803-4.261,13.343-6.453,20.001
	c-2.1,6.374-3.102,12.861-1.672,19.516c1.842,8.568,8.226,12.245,15.989,13.671c7.206,1.324,14.37,0.949,21.263-2.379
	c9.662-4.662,14.174-12.852,16.562-22.693c2.118-8.741,2.09-17.643,2.086-26.566c-0.041-100.188-0.027-200.376-0.027-300.565
	C528.806,261.135,528.806,259.676,528.806,257.819z"/>
</svg>
